<?xml version="1.0" encoding="UTF-8"?>
<!DOCTYPE svg PUBLIC "-//W3C//DTD SVG 1.1//EN" "http://www.w3.org/Graphics/SVG/1.1/DTD/svg11.dtd">
<svg version="1.2" width="210mm" height="201mm" viewBox="0 0 21000 20100" preserveAspectRatio="xMidYMid" fill-rule="evenodd" stroke-width="28.222" stroke-linejoin="round" xmlns="http://www.w3.org/2000/svg" xmlns:ooo="http://xml.openoffice.org/svg/export" xmlns:xlink="http://www.w3.org/1999/xlink" xmlns:presentation="http://sun.com/xmlns/staroffice/presentation" xmlns:smil="http://www.w3.org/2001/SMIL20/" xmlns:anim="urn:oasis:names:tc:opendocument:xmlns:animation:1.0" xml:space="preserve">
 <defs class="ClipPathGroup">
  <clipPath id="presentation_clip_path" clipPathUnits="userSpaceOnUse">
   <rect x="0" y="0" width="21000" height="20100"/>
  </clipPath>
  <clipPath id="presentation_clip_path_shrink" clipPathUnits="userSpaceOnUse">
   <rect x="21" y="20" width="20958" height="20060"/>
  </clipPath>
 </defs>
 <defs class="TextShapeIndex">
  <g ooo:slide="id1" ooo:id-list="id3 id4 id5 id6 id7 id8 id9 id10 id11 id12 id13 id14 id15 id16 id17 id18 id19 id20 id21 id22 id23 id24 id25 id26 id27 id28 id29 id30 id31 id32 id33 id34 id35 id36 id37 id38 id39 id40 id41 id42 id43 id44 id45 id46 id47 id48 id49 id50 id51 id52 id53 id54 id55 id56 id57 id58 id59 id60 id61 id62 id63 id64 id65 id66 id67 id68 id69 id70 id71 id72 id73 id74 id75 id76 id77 id78 id79 id80 id81 id82 id83 id84 id85 id86 id87 id88 id89 id90 id91 id92 id93 id94 id95 id96 id97 id98 id99 id100 id101 id102 id103 id104 id105 id106 id107 id108 id109 id110 id111 id112 id113 id114 id115 id116 id117 id118 id119 id120 id121 id122 id123 id124 id125 id126 id127 id128 id129 id130 id131"/>
 </defs>
 <defs class="EmbeddedBulletChars">
  <g id="bullet-char-template-57356" transform="scale(0.00048828125,-0.00048828125)">
   <path d="M 580,1141 L 1163,571 580,0 -4,571 580,1141 Z"/>
  </g>
  <g id="bullet-char-template-57354" transform="scale(0.00048828125,-0.00048828125)">
   <path d="M 8,1128 L 1137,1128 1137,0 8,0 8,1128 Z"/>
  </g>
  <g id="bullet-char-template-10146" transform="scale(0.00048828125,-0.00048828125)">
   <path d="M 174,0 L 602,739 174,1481 1456,739 174,0 Z M 1358,739 L 309,1346 659,739 1358,739 Z"/>
  </g>
  <g id="bullet-char-template-10132" transform="scale(0.00048828125,-0.00048828125)">
   <path d="M 2015,739 L 1276,0 717,0 1260,543 174,543 174,936 1260,936 717,1481 1274,1481 2015,739 Z"/>
  </g>
  <g id="bullet-char-template-10007" transform="scale(0.00048828125,-0.00048828125)">
   <path d="M 0,-2 C -7,14 -16,27 -25,37 L 356,567 C 262,823 215,952 215,954 215,979 228,992 255,992 264,992 276,990 289,987 310,991 331,999 354,1012 L 381,999 492,748 772,1049 836,1024 860,1049 C 881,1039 901,1025 922,1006 886,937 835,863 770,784 769,783 710,716 594,584 L 774,223 C 774,196 753,168 711,139 L 727,119 C 717,90 699,76 672,76 641,76 570,178 457,381 L 164,-76 C 142,-110 111,-127 72,-127 30,-127 9,-110 8,-76 1,-67 -2,-52 -2,-32 -2,-23 -1,-13 0,-2 Z"/>
  </g>
  <g id="bullet-char-template-10004" transform="scale(0.00048828125,-0.00048828125)">
   <path d="M 285,-33 C 182,-33 111,30 74,156 52,228 41,333 41,471 41,549 55,616 82,672 116,743 169,778 240,778 293,778 328,747 346,684 L 369,508 C 377,444 397,411 428,410 L 1163,1116 C 1174,1127 1196,1133 1229,1133 1271,1133 1292,1118 1292,1087 L 1292,965 C 1292,929 1282,901 1262,881 L 442,47 C 390,-6 338,-33 285,-33 Z"/>
  </g>
  <g id="bullet-char-template-9679" transform="scale(0.00048828125,-0.00048828125)">
   <path d="M 813,0 C 632,0 489,54 383,161 276,268 223,411 223,592 223,773 276,916 383,1023 489,1130 632,1184 813,1184 992,1184 1136,1130 1245,1023 1353,916 1407,772 1407,592 1407,412 1353,268 1245,161 1136,54 992,0 813,0 Z"/>
  </g>
  <g id="bullet-char-template-8226" transform="scale(0.00048828125,-0.00048828125)">
   <path d="M 346,457 C 273,457 209,483 155,535 101,586 74,649 74,723 74,796 101,859 155,911 209,963 273,989 346,989 419,989 480,963 531,910 582,859 608,796 608,723 608,648 583,586 532,535 482,483 420,457 346,457 Z"/>
  </g>
  <g id="bullet-char-template-8211" transform="scale(0.00048828125,-0.00048828125)">
   <path d="M -4,459 L 1135,459 1135,606 -4,606 -4,459 Z"/>
  </g>
  <g id="bullet-char-template-61548" transform="scale(0.00048828125,-0.00048828125)">
   <path d="M 173,740 C 173,903 231,1043 346,1159 462,1274 601,1332 765,1332 928,1332 1067,1274 1183,1159 1299,1043 1357,903 1357,740 1357,577 1299,437 1183,322 1067,206 928,148 765,148 601,148 462,206 346,322 231,437 173,577 173,740 Z"/>
  </g>
 </defs>
 <defs class="TextEmbeddedBitmaps"/>
 <g>
  <g id="id2" class="Master_Slide">
   <g id="bg-id2" class="Background"/>
   <g id="bo-id2" class="BackgroundObjects"/>
  </g>
 </g>
 <g class="SlideGroup">
  <g>
   <g id="container-id1">
    <g id="id1" class="Slide" clip-path="url(#presentation_clip_path)">
     <g class="Page">
      <g class="Group">
       <g class="com.sun.star.drawing.PolyPolygonShape">
        <g id="id3">
         <rect class="BoundingBox" stroke="none" fill="none" x="1622" y="2738" width="2280" height="1014"/>
         <path fill="rgb(178,178,178)" stroke="none" d="M 1623,2739 L 1623,3750 3900,3750 3900,2739 1623,2739 Z M 2219,3434 L 2219,3268 2058,3268 2058,3434 1965,3434 1965,3030 2058,3030 2058,3186 2219,3186 2219,3030 2313,3030 2313,3434 2219,3434 Z M 2727,3112 L 2604,3112 2604,3434 2510,3434 2510,3112 2387,3112 2387,3030 2727,3030 2727,3112 Z M 3212,3434 L 3119,3434 3119,3192 3031,3368 2981,3368 2893,3192 2893,3434 2800,3434 2800,3030 2901,3030 3006,3241 3111,3030 3212,3030 3212,3434 Z M 3318,3434 L 3318,3030 3411,3030 3411,3352 3607,3352 3607,3434 3318,3434 Z"/>
        </g>
       </g>
       <g class="com.sun.star.drawing.PolyPolygonShape">
        <g id="id4">
         <rect class="BoundingBox" stroke="none" fill="none" x="1748" y="3940" width="2028" height="255"/>
         <path fill="rgb(178,178,178)" stroke="none" d="M 2762,4193 L 1749,4193 1749,3940 3774,3940 3774,4193 2762,4193 Z"/>
        </g>
       </g>
       <g class="com.sun.star.drawing.PolyPolygonShape">
        <g id="id5">
         <rect class="BoundingBox" stroke="none" fill="none" x="3299" y="1693" width="382" height="382"/>
         <path fill="rgb(178,178,178)" stroke="none" d="M 3299,1694 L 3299,2074 3679,2074 3299,1694 Z"/>
        </g>
       </g>
       <g class="com.sun.star.drawing.PolyPolygonShape">
        <g id="id6">
         <rect class="BoundingBox" stroke="none" fill="none" x="1748" y="1599" width="2028" height="951"/>
         <path fill="rgb(178,178,178)" stroke="none" d="M 3109,2264 L 3109,1600 1749,1600 1749,2549 3774,2549 3774,2264 3109,2264 Z"/>
        </g>
       </g>
      </g>
      <g class="Group">
       <g class="com.sun.star.drawing.PolyPolygonShape">
        <g id="id7">
         <rect class="BoundingBox" stroke="none" fill="none" x="11301" y="6818" width="738" height="1024"/>
         <path fill="rgb(89,131,176)" stroke="none" d="M 12038,7840 L 11302,7439 11302,7218 12038,6819 12038,7080 11525,7326 12038,7581 12038,7840 Z"/>
        </g>
       </g>
       <g class="com.sun.star.drawing.PolyPolygonShape">
        <g id="id8">
         <rect class="BoundingBox" stroke="none" fill="none" x="12162" y="6678" width="644" height="1304"/>
         <path fill="rgb(89,131,176)" stroke="none" d="M 12163,7980 L 12650,6679 12804,6679 12316,7980 12163,7980 Z"/>
        </g>
       </g>
       <g class="com.sun.star.drawing.PolyPolygonShape">
        <g id="id9">
         <rect class="BoundingBox" stroke="none" fill="none" x="12969" y="6818" width="738" height="1024"/>
         <path fill="rgb(89,131,176)" stroke="none" d="M 12969,7840 L 12969,7581 13482,7328 12969,7077 12969,6819 13705,7218 13705,7438 12969,7840 Z"/>
        </g>
       </g>
      </g>
      <g class="Group">
       <g class="com.sun.star.drawing.PolyPolygonShape">
        <g id="id10">
         <rect class="BoundingBox" stroke="none" fill="none" x="4301" y="6718" width="738" height="1024"/>
         <path fill="rgb(89,131,176)" stroke="none" d="M 5038,7740 L 4302,7339 4302,7118 5038,6719 5038,6980 4525,7226 5038,7481 5038,7740 Z"/>
        </g>
       </g>
       <g class="com.sun.star.drawing.PolyPolygonShape">
        <g id="id11">
         <rect class="BoundingBox" stroke="none" fill="none" x="5162" y="6578" width="644" height="1304"/>
         <path fill="rgb(89,131,176)" stroke="none" d="M 5163,7880 L 5650,6579 5804,6579 5316,7880 5163,7880 Z"/>
        </g>
       </g>
       <g class="com.sun.star.drawing.PolyPolygonShape">
        <g id="id12">
         <rect class="BoundingBox" stroke="none" fill="none" x="5969" y="6718" width="738" height="1024"/>
         <path fill="rgb(89,131,176)" stroke="none" d="M 5969,7740 L 5969,7481 6482,7228 5969,6977 5969,6719 6705,7118 6705,7338 5969,7740 Z"/>
        </g>
       </g>
      </g>
      <g class="Group">
       <g class="com.sun.star.drawing.PolyPolygonShape">
        <g id="id13">
         <rect class="BoundingBox" stroke="none" fill="none" x="5923" y="10162" width="975" height="201"/>
         <path fill="rgb(63,175,70)" stroke="none" d="M 6024,10362 L 6798,10362 6808,10361 6818,10360 6827,10357 6836,10354 6845,10350 6853,10345 6861,10339 6868,10333 6874,10326 6880,10318 6885,10310 6889,10302 6892,10292 6894,10283 6896,10273 6896,10263 6896,10253 6894,10243 6892,10233 6889,10224 6885,10215 6880,10207 6874,10199 6868,10192 6861,10186 6853,10180 6845,10175 6836,10171 6827,10168 6818,10165 6808,10164 6798,10163 6024,10163 6014,10164 6004,10165 5994,10168 5985,10171 5976,10175 5968,10180 5960,10186 5953,10192 5947,10199 5941,10207 5936,10215 5932,10224 5928,10233 5926,10243 5925,10253 5924,10263 5925,10273 5926,10283 5928,10292 5932,10302 5936,10310 5941,10318 5947,10326 5953,10333 5960,10339 5968,10345 5976,10350 5985,10354 5994,10357 6004,10360 6014,10361 6024,10362 Z"/>
        </g>
       </g>
       <g class="com.sun.star.drawing.PolyPolygonShape">
        <g id="id14">
         <rect class="BoundingBox" stroke="none" fill="none" x="5923" y="10678" width="1585" height="201"/>
         <path fill="rgb(63,175,70)" stroke="none" d="M 6024,10878 L 7407,10878 7417,10877 7427,10876 7437,10873 7446,10870 7454,10866 7463,10861 7470,10855 7477,10849 7484,10842 7489,10834 7494,10826 7498,10817 7502,10808 7504,10799 7506,10789 7506,10779 7506,10768 7504,10759 7502,10749 7498,10740 7494,10731 7489,10723 7484,10715 7477,10708 7470,10702 7463,10696 7454,10691 7446,10687 7437,10683 7427,10681 7417,10679 7407,10679 6024,10679 6014,10679 6004,10681 5994,10683 5985,10687 5976,10691 5968,10696 5960,10702 5953,10708 5947,10715 5941,10723 5936,10731 5932,10740 5928,10749 5926,10759 5925,10768 5924,10779 5925,10789 5926,10799 5928,10808 5932,10817 5936,10826 5941,10834 5947,10842 5953,10849 5960,10855 5968,10861 5976,10866 5985,10870 5994,10873 6004,10876 6014,10877 6024,10878 Z"/>
        </g>
       </g>
       <g class="com.sun.star.drawing.PolyPolygonShape">
        <g id="id15">
         <rect class="BoundingBox" stroke="none" fill="none" x="5923" y="11194" width="1398" height="202"/>
         <path fill="rgb(63,175,70)" stroke="none" d="M 6024,11394 L 7219,11394 7229,11394 7239,11392 7249,11390 7258,11386 7267,11382 7275,11377 7283,11371 7290,11365 7296,11358 7302,11350 7307,11342 7311,11333 7315,11324 7317,11314 7319,11305 7319,11294 7319,11284 7317,11274 7315,11265 7311,11256 7307,11247 7302,11239 7296,11231 7290,11224 7283,11217 7275,11212 7267,11207 7258,11202 7249,11199 7239,11196 7229,11195 7219,11194 6024,11194 6014,11195 6004,11196 5994,11199 5985,11202 5976,11207 5968,11212 5960,11217 5953,11224 5947,11231 5941,11239 5936,11247 5932,11256 5928,11265 5926,11274 5925,11284 5924,11294 5925,11305 5926,11314 5928,11324 5932,11333 5936,11342 5941,11350 5947,11358 5953,11365 5960,11371 5968,11377 5976,11382 5985,11386 5994,11390 6004,11392 6014,11394 6024,11394 Z"/>
        </g>
       </g>
       <g class="com.sun.star.drawing.PolyPolygonShape">
        <g id="id16">
         <rect class="BoundingBox" stroke="none" fill="none" x="5923" y="11740" width="1773" height="201"/>
         <path fill="rgb(63,175,70)" stroke="none" d="M 7594,11740 L 6024,11740 6014,11741 6004,11742 5994,11745 5985,11748 5976,11752 5968,11757 5960,11763 5953,11769 5947,11776 5941,11784 5936,11792 5932,11800 5928,11810 5926,11819 5925,11829 5924,11839 5925,11849 5926,11859 5928,11869 5932,11878 5936,11887 5941,11895 5947,11903 5953,11910 5960,11916 5968,11922 5976,11927 5985,11931 5994,11934 6004,11937 6014,11938 6024,11939 7594,11939 7604,11938 7614,11937 7624,11934 7633,11931 7642,11927 7650,11922 7658,11916 7665,11910 7671,11903 7677,11895 7682,11887 7686,11878 7690,11869 7692,11859 7693,11849 7694,11839 7693,11829 7692,11819 7690,11810 7686,11800 7682,11792 7677,11784 7671,11776 7665,11769 7658,11763 7650,11757 7642,11752 7633,11748 7624,11745 7614,11742 7604,11741 7594,11740 Z"/>
        </g>
       </g>
      </g>
      <g class="Group">
       <g class="com.sun.star.drawing.PolyPolygonShape">
        <g id="id17">
         <rect class="BoundingBox" stroke="none" fill="none" x="2420" y="10426" width="738" height="1024"/>
         <path fill="rgb(89,131,176)" stroke="none" d="M 3157,11448 L 2421,11047 2421,10826 3157,10427 3157,10688 2644,10934 3157,11189 3157,11448 Z"/>
        </g>
       </g>
       <g class="com.sun.star.drawing.PolyPolygonShape">
        <g id="id18">
         <rect class="BoundingBox" stroke="none" fill="none" x="3281" y="10286" width="644" height="1304"/>
         <path fill="rgb(89,131,176)" stroke="none" d="M 3282,11588 L 3769,10287 3923,10287 3435,11588 3282,11588 Z"/>
        </g>
       </g>
       <g class="com.sun.star.drawing.PolyPolygonShape">
        <g id="id19">
         <rect class="BoundingBox" stroke="none" fill="none" x="4088" y="10426" width="738" height="1024"/>
         <path fill="rgb(89,131,176)" stroke="none" d="M 4088,11448 L 4088,11189 4601,10936 4088,10685 4088,10427 4824,10826 4824,11046 4088,11448 Z"/>
        </g>
       </g>
      </g>
      <g class="com.sun.star.drawing.PolyPolygonShape">
       <g id="id20">
        <rect class="BoundingBox" stroke="none" fill="none" x="13101" y="10226" width="738" height="1024"/>
        <path fill="rgb(89,131,176)" stroke="none" d="M 13838,11248 L 13102,10847 13102,10626 13838,10227 13838,10488 13325,10734 13838,10989 13838,11248 Z"/>
       </g>
      </g>
      <g class="com.sun.star.drawing.PolyPolygonShape">
       <g id="id21">
        <rect class="BoundingBox" stroke="none" fill="none" x="13962" y="10086" width="644" height="1304"/>
        <path fill="rgb(89,131,176)" stroke="none" d="M 13963,11388 L 14450,10087 14604,10087 14116,11388 13963,11388 Z"/>
       </g>
      </g>
      <g class="com.sun.star.drawing.PolyPolygonShape">
       <g id="id22">
        <rect class="BoundingBox" stroke="none" fill="none" x="14769" y="10226" width="738" height="1024"/>
        <path fill="rgb(89,131,176)" stroke="none" d="M 14769,11248 L 14769,10989 15282,10736 14769,10485 14769,10227 15505,10626 15505,10846 14769,11248 Z"/>
       </g>
      </g>
      <g class="Group">
       <g class="com.sun.star.drawing.PolyPolygonShape">
        <g id="id23">
         <rect class="BoundingBox" stroke="none" fill="none" x="9293" y="10226" width="738" height="1024"/>
         <path fill="rgb(89,131,176)" stroke="none" d="M 10030,11248 L 9294,10847 9294,10626 10030,10227 10030,10488 9517,10734 10030,10989 10030,11248 Z"/>
        </g>
       </g>
       <g class="com.sun.star.drawing.PolyPolygonShape">
        <g id="id24">
         <rect class="BoundingBox" stroke="none" fill="none" x="10154" y="10086" width="644" height="1304"/>
         <path fill="rgb(89,131,176)" stroke="none" d="M 10155,11388 L 10642,10087 10796,10087 10308,11388 10155,11388 Z"/>
        </g>
       </g>
       <g class="com.sun.star.drawing.PolyPolygonShape">
        <g id="id25">
         <rect class="BoundingBox" stroke="none" fill="none" x="10961" y="10226" width="738" height="1024"/>
         <path fill="rgb(89,131,176)" stroke="none" d="M 10961,11248 L 10961,10989 11474,10736 10961,10485 10961,10227 11697,10626 11697,10846 10961,11248 Z"/>
        </g>
       </g>
      </g>
      <g class="Group">
       <g class="com.sun.star.drawing.PolyPolygonShape">
        <g id="id26">
         <rect class="BoundingBox" stroke="none" fill="none" x="8223" y="13535" width="975" height="201"/>
         <path fill="rgb(63,175,70)" stroke="none" d="M 8324,13735 L 9098,13735 9108,13734 9118,13733 9127,13730 9136,13727 9145,13723 9153,13718 9161,13712 9168,13706 9174,13699 9180,13691 9185,13683 9189,13675 9192,13665 9194,13656 9196,13646 9196,13636 9196,13626 9194,13616 9192,13606 9189,13597 9185,13588 9180,13580 9174,13572 9168,13565 9161,13559 9153,13553 9145,13548 9136,13544 9127,13541 9118,13538 9108,13537 9098,13536 8324,13536 8314,13537 8304,13538 8294,13541 8285,13544 8276,13548 8268,13553 8260,13559 8253,13565 8247,13572 8241,13580 8236,13588 8232,13597 8228,13606 8226,13616 8225,13626 8224,13636 8225,13646 8226,13656 8228,13665 8232,13675 8236,13683 8241,13691 8247,13699 8253,13706 8260,13712 8268,13718 8276,13723 8285,13727 8294,13730 8304,13733 8314,13734 8324,13735 Z"/>
        </g>
       </g>
       <g class="com.sun.star.drawing.PolyPolygonShape">
        <g id="id27">
         <rect class="BoundingBox" stroke="none" fill="none" x="8223" y="14051" width="1585" height="201"/>
         <path fill="rgb(63,175,70)" stroke="none" d="M 8324,14251 L 9707,14251 9717,14250 9727,14249 9737,14246 9746,14243 9754,14239 9763,14234 9770,14228 9777,14222 9784,14215 9789,14207 9794,14199 9798,14190 9802,14181 9804,14172 9806,14162 9806,14152 9806,14141 9804,14132 9802,14122 9798,14113 9794,14104 9789,14096 9784,14088 9777,14081 9770,14075 9763,14069 9754,14064 9746,14060 9737,14056 9727,14054 9717,14052 9707,14052 8324,14052 8314,14052 8304,14054 8294,14056 8285,14060 8276,14064 8268,14069 8260,14075 8253,14081 8247,14088 8241,14096 8236,14104 8232,14113 8228,14122 8226,14132 8225,14141 8224,14152 8225,14162 8226,14172 8228,14181 8232,14190 8236,14199 8241,14207 8247,14215 8253,14222 8260,14228 8268,14234 8276,14239 8285,14243 8294,14246 8304,14249 8314,14250 8324,14251 Z"/>
        </g>
       </g>
       <g class="com.sun.star.drawing.PolyPolygonShape">
        <g id="id28">
         <rect class="BoundingBox" stroke="none" fill="none" x="8223" y="14567" width="1398" height="202"/>
         <path fill="rgb(63,175,70)" stroke="none" d="M 8324,14767 L 9519,14767 9529,14767 9539,14765 9549,14763 9558,14759 9567,14755 9575,14750 9583,14744 9590,14738 9596,14731 9602,14723 9607,14715 9611,14706 9615,14697 9617,14687 9619,14678 9619,14667 9619,14657 9617,14647 9615,14638 9611,14629 9607,14620 9602,14612 9596,14604 9590,14597 9583,14590 9575,14585 9567,14580 9558,14575 9549,14572 9539,14569 9529,14568 9519,14567 8324,14567 8314,14568 8304,14569 8294,14572 8285,14575 8276,14580 8268,14585 8260,14590 8253,14597 8247,14604 8241,14612 8236,14620 8232,14629 8228,14638 8226,14647 8225,14657 8224,14667 8225,14678 8226,14687 8228,14697 8232,14706 8236,14715 8241,14723 8247,14731 8253,14738 8260,14744 8268,14750 8276,14755 8285,14759 8294,14763 8304,14765 8314,14767 8324,14767 Z"/>
        </g>
       </g>
       <g class="com.sun.star.drawing.PolyPolygonShape">
        <g id="id29">
         <rect class="BoundingBox" stroke="none" fill="none" x="8223" y="15113" width="1773" height="201"/>
         <path fill="rgb(63,175,70)" stroke="none" d="M 9894,15113 L 8324,15113 8314,15114 8304,15115 8294,15118 8285,15121 8276,15125 8268,15130 8260,15136 8253,15142 8247,15149 8241,15157 8236,15165 8232,15173 8228,15183 8226,15192 8225,15202 8224,15212 8225,15222 8226,15232 8228,15242 8232,15251 8236,15260 8241,15268 8247,15276 8253,15283 8260,15289 8268,15295 8276,15300 8285,15304 8294,15307 8304,15310 8314,15311 8324,15312 9894,15312 9904,15311 9914,15310 9924,15307 9933,15304 9942,15300 9950,15295 9958,15289 9965,15283 9971,15276 9977,15268 9982,15260 9986,15251 9990,15242 9992,15232 9993,15222 9994,15212 9993,15202 9992,15192 9990,15183 9986,15173 9982,15165 9977,15157 9971,15149 9965,15142 9958,15136 9950,15130 9942,15125 9933,15121 9924,15118 9914,15115 9904,15114 9894,15113 Z"/>
        </g>
       </g>
      </g>
      <g class="Group">
       <g class="com.sun.star.drawing.PolyPolygonShape">
        <g id="id30">
         <rect class="BoundingBox" stroke="none" fill="none" x="2723" y="13635" width="975" height="201"/>
         <path fill="rgb(63,175,70)" stroke="none" d="M 2824,13835 L 3598,13835 3608,13834 3618,13833 3627,13830 3636,13827 3645,13823 3653,13818 3661,13812 3668,13806 3674,13799 3680,13791 3685,13783 3689,13775 3692,13765 3694,13756 3696,13746 3696,13736 3696,13726 3694,13716 3692,13706 3689,13697 3685,13688 3680,13680 3674,13672 3668,13665 3661,13659 3653,13653 3645,13648 3636,13644 3627,13641 3618,13638 3608,13637 3598,13636 2824,13636 2814,13637 2804,13638 2794,13641 2785,13644 2776,13648 2768,13653 2760,13659 2753,13665 2747,13672 2741,13680 2736,13688 2732,13697 2728,13706 2726,13716 2725,13726 2724,13736 2725,13746 2726,13756 2728,13765 2732,13775 2736,13783 2741,13791 2747,13799 2753,13806 2760,13812 2768,13818 2776,13823 2785,13827 2794,13830 2804,13833 2814,13834 2824,13835 Z"/>
        </g>
       </g>
       <g class="com.sun.star.drawing.PolyPolygonShape">
        <g id="id31">
         <rect class="BoundingBox" stroke="none" fill="none" x="2723" y="14151" width="1585" height="201"/>
         <path fill="rgb(63,175,70)" stroke="none" d="M 2824,14351 L 4207,14351 4217,14350 4227,14349 4237,14346 4246,14343 4254,14339 4263,14334 4270,14328 4277,14322 4284,14315 4289,14307 4294,14299 4298,14290 4302,14281 4304,14272 4306,14262 4306,14252 4306,14241 4304,14232 4302,14222 4298,14213 4294,14204 4289,14196 4284,14188 4277,14181 4270,14175 4263,14169 4254,14164 4246,14160 4237,14156 4227,14154 4217,14152 4207,14152 2824,14152 2814,14152 2804,14154 2794,14156 2785,14160 2776,14164 2768,14169 2760,14175 2753,14181 2747,14188 2741,14196 2736,14204 2732,14213 2728,14222 2726,14232 2725,14241 2724,14252 2725,14262 2726,14272 2728,14281 2732,14290 2736,14299 2741,14307 2747,14315 2753,14322 2760,14328 2768,14334 2776,14339 2785,14343 2794,14346 2804,14349 2814,14350 2824,14351 Z"/>
        </g>
       </g>
       <g class="com.sun.star.drawing.PolyPolygonShape">
        <g id="id32">
         <rect class="BoundingBox" stroke="none" fill="none" x="2723" y="14667" width="1398" height="202"/>
         <path fill="rgb(63,175,70)" stroke="none" d="M 2824,14867 L 4019,14867 4029,14867 4039,14865 4049,14863 4058,14859 4067,14855 4075,14850 4083,14844 4090,14838 4096,14831 4102,14823 4107,14815 4111,14806 4115,14797 4117,14787 4119,14778 4119,14767 4119,14757 4117,14747 4115,14738 4111,14729 4107,14720 4102,14712 4096,14704 4090,14697 4083,14690 4075,14685 4067,14680 4058,14675 4049,14672 4039,14669 4029,14668 4019,14667 2824,14667 2814,14668 2804,14669 2794,14672 2785,14675 2776,14680 2768,14685 2760,14690 2753,14697 2747,14704 2741,14712 2736,14720 2732,14729 2728,14738 2726,14747 2725,14757 2724,14767 2725,14778 2726,14787 2728,14797 2732,14806 2736,14815 2741,14823 2747,14831 2753,14838 2760,14844 2768,14850 2776,14855 2785,14859 2794,14863 2804,14865 2814,14867 2824,14867 Z"/>
        </g>
       </g>
       <g class="com.sun.star.drawing.PolyPolygonShape">
        <g id="id33">
         <rect class="BoundingBox" stroke="none" fill="none" x="2723" y="15213" width="1773" height="201"/>
         <path fill="rgb(63,175,70)" stroke="none" d="M 4394,15213 L 2824,15213 2814,15214 2804,15215 2794,15218 2785,15221 2776,15225 2768,15230 2760,15236 2753,15242 2747,15249 2741,15257 2736,15265 2732,15273 2728,15283 2726,15292 2725,15302 2724,15312 2725,15322 2726,15332 2728,15342 2732,15351 2736,15360 2741,15368 2747,15376 2753,15383 2760,15389 2768,15395 2776,15400 2785,15404 2794,15407 2804,15410 2814,15411 2824,15412 4394,15412 4404,15411 4414,15410 4424,15407 4433,15404 4442,15400 4450,15395 4458,15389 4465,15383 4471,15376 4477,15368 4482,15360 4486,15351 4490,15342 4492,15332 4493,15322 4494,15312 4493,15302 4492,15292 4490,15283 4486,15273 4482,15265 4477,15257 4471,15249 4465,15242 4458,15236 4450,15230 4442,15225 4433,15221 4424,15218 4414,15215 4404,15214 4394,15213 Z"/>
        </g>
       </g>
      </g>
      <g class="Group">
       <g class="com.sun.star.drawing.PolyPolygonShape">
        <g id="id34">
         <rect class="BoundingBox" stroke="none" fill="none" x="15323" y="13735" width="975" height="201"/>
         <path fill="rgb(63,175,70)" stroke="none" d="M 15424,13935 L 16198,13935 16208,13934 16218,13933 16227,13930 16236,13927 16245,13923 16253,13918 16261,13912 16268,13906 16274,13899 16280,13891 16285,13883 16289,13875 16292,13865 16294,13856 16296,13846 16296,13836 16296,13826 16294,13816 16292,13806 16289,13797 16285,13788 16280,13780 16274,13772 16268,13765 16261,13759 16253,13753 16245,13748 16236,13744 16227,13741 16218,13738 16208,13737 16198,13736 15424,13736 15414,13737 15404,13738 15394,13741 15385,13744 15376,13748 15368,13753 15360,13759 15353,13765 15347,13772 15341,13780 15336,13788 15332,13797 15328,13806 15326,13816 15325,13826 15324,13836 15325,13846 15326,13856 15328,13865 15332,13875 15336,13883 15341,13891 15347,13899 15353,13906 15360,13912 15368,13918 15376,13923 15385,13927 15394,13930 15404,13933 15414,13934 15424,13935 Z"/>
        </g>
       </g>
       <g class="com.sun.star.drawing.PolyPolygonShape">
        <g id="id35">
         <rect class="BoundingBox" stroke="none" fill="none" x="15323" y="14251" width="1585" height="201"/>
         <path fill="rgb(63,175,70)" stroke="none" d="M 15424,14451 L 16807,14451 16817,14450 16827,14449 16837,14446 16846,14443 16854,14439 16863,14434 16870,14428 16877,14422 16884,14415 16889,14407 16894,14399 16898,14390 16902,14381 16904,14372 16906,14362 16906,14352 16906,14341 16904,14332 16902,14322 16898,14313 16894,14304 16889,14296 16884,14288 16877,14281 16870,14275 16863,14269 16854,14264 16846,14260 16837,14256 16827,14254 16817,14252 16807,14252 15424,14252 15414,14252 15404,14254 15394,14256 15385,14260 15376,14264 15368,14269 15360,14275 15353,14281 15347,14288 15341,14296 15336,14304 15332,14313 15328,14322 15326,14332 15325,14341 15324,14352 15325,14362 15326,14372 15328,14381 15332,14390 15336,14399 15341,14407 15347,14415 15353,14422 15360,14428 15368,14434 15376,14439 15385,14443 15394,14446 15404,14449 15414,14450 15424,14451 Z"/>
        </g>
       </g>
       <g class="com.sun.star.drawing.PolyPolygonShape">
        <g id="id36">
         <rect class="BoundingBox" stroke="none" fill="none" x="15323" y="14767" width="1398" height="202"/>
         <path fill="rgb(63,175,70)" stroke="none" d="M 15424,14967 L 16619,14967 16629,14967 16639,14965 16649,14963 16658,14959 16667,14955 16675,14950 16683,14944 16690,14938 16696,14931 16702,14923 16707,14915 16711,14906 16715,14897 16717,14887 16719,14878 16719,14867 16719,14857 16717,14847 16715,14838 16711,14829 16707,14820 16702,14812 16696,14804 16690,14797 16683,14790 16675,14785 16667,14780 16658,14775 16649,14772 16639,14769 16629,14768 16619,14767 15424,14767 15414,14768 15404,14769 15394,14772 15385,14775 15376,14780 15368,14785 15360,14790 15353,14797 15347,14804 15341,14812 15336,14820 15332,14829 15328,14838 15326,14847 15325,14857 15324,14867 15325,14878 15326,14887 15328,14897 15332,14906 15336,14915 15341,14923 15347,14931 15353,14938 15360,14944 15368,14950 15376,14955 15385,14959 15394,14963 15404,14965 15414,14967 15424,14967 Z"/>
        </g>
       </g>
       <g class="com.sun.star.drawing.PolyPolygonShape">
        <g id="id37">
         <rect class="BoundingBox" stroke="none" fill="none" x="15323" y="15313" width="1773" height="201"/>
         <path fill="rgb(63,175,70)" stroke="none" d="M 16994,15313 L 15424,15313 15414,15314 15404,15315 15394,15318 15385,15321 15376,15325 15368,15330 15360,15336 15353,15342 15347,15349 15341,15357 15336,15365 15332,15373 15328,15383 15326,15392 15325,15402 15324,15412 15325,15422 15326,15432 15328,15442 15332,15451 15336,15460 15341,15468 15347,15476 15353,15483 15360,15489 15368,15495 15376,15500 15385,15504 15394,15507 15404,15510 15414,15511 15424,15512 16994,15512 17004,15511 17014,15510 17024,15507 17033,15504 17042,15500 17050,15495 17058,15489 17065,15483 17071,15476 17077,15468 17082,15460 17086,15451 17090,15442 17092,15432 17093,15422 17094,15412 17093,15402 17092,15392 17090,15383 17086,15373 17082,15365 17077,15357 17071,15349 17065,15342 17058,15336 17050,15330 17042,15325 17033,15321 17024,15318 17014,15315 17004,15314 16994,15313 Z"/>
        </g>
       </g>
      </g>
      <g class="Group">
       <g class="com.sun.star.drawing.PolyPolygonShape">
        <g id="id38">
         <rect class="BoundingBox" stroke="none" fill="none" x="15899" y="6648" width="897" height="898"/>
         <path fill="rgb(201,33,30)" stroke="none" d="M 16348,6649 L 16302,6651 16258,6658 16215,6669 16174,6684 16135,6703 16098,6725 16063,6751 16031,6780 16002,6812 15977,6846 15954,6883 15935,6922 15920,6963 15909,7006 15902,7051 15900,7097 15902,7142 15909,7187 15920,7230 15935,7271 15954,7310 15977,7347 16002,7381 16031,7413 16063,7442 16098,7468 16135,7490 16174,7509 16215,7524 16258,7535 16302,7542 16348,7544 16394,7542 16438,7535 16481,7524 16522,7509 16561,7490 16598,7468 16632,7442 16664,7413 16693,7381 16718,7347 16741,7310 16760,7271 16775,7230 16786,7187 16792,7142 16795,7097 16792,7051 16786,7006 16775,6963 16760,6922 16741,6883 16718,6846 16693,6812 16664,6780 16632,6751 16598,6725 16561,6703 16522,6684 16481,6669 16438,6658 16394,6651 16348,6649 Z"/>
        </g>
       </g>
       <g class="com.sun.star.drawing.PolyPolygonShape">
        <g id="id39">
         <rect class="BoundingBox" stroke="none" fill="none" x="17168" y="6648" width="898" height="898"/>
         <path fill="rgb(201,33,30)" stroke="none" d="M 17616,6649 L 17571,6651 17526,6658 17483,6669 17442,6684 17403,6703 17366,6725 17332,6751 17300,6780 17271,6812 17245,6846 17223,6883 17204,6922 17189,6963 17178,7006 17171,7051 17169,7097 17171,7142 17178,7187 17189,7230 17204,7271 17223,7310 17245,7347 17271,7381 17300,7413 17332,7442 17366,7468 17403,7490 17442,7509 17483,7524 17526,7535 17571,7542 17616,7544 17662,7542 17707,7535 17750,7524 17791,7509 17830,7490 17867,7468 17901,7442 17933,7413 17962,7381 17988,7347 18010,7310 18029,7271 18044,7230 18055,7187 18062,7142 18064,7097 18062,7051 18055,7006 18044,6963 18029,6922 18010,6883 17988,6846 17962,6812 17933,6780 17901,6751 17867,6725 17830,6703 17791,6684 17750,6669 17707,6658 17662,6651 17616,6649 Z"/>
        </g>
       </g>
       <g class="com.sun.star.drawing.PolyPolygonShape">
        <g id="id40">
         <rect class="BoundingBox" stroke="none" fill="none" x="18394" y="6648" width="897" height="898"/>
         <path fill="rgb(201,33,30)" stroke="none" d="M 18841,6649 L 18795,6651 18751,6658 18708,6669 18667,6684 18628,6703 18591,6725 18557,6751 18525,6780 18496,6812 18471,6846 18448,6883 18429,6922 18414,6963 18403,7006 18397,7051 18394,7097 18397,7142 18403,7187 18414,7230 18429,7271 18448,7310 18471,7347 18496,7381 18525,7413 18557,7442 18591,7468 18628,7490 18667,7509 18708,7524 18751,7535 18795,7542 18841,7544 18887,7542 18931,7535 18974,7524 19015,7509 19054,7490 19091,7468 19126,7442 19158,7413 19187,7381 19212,7347 19235,7310 19254,7271 19269,7230 19280,7187 19287,7142 19289,7097 19287,7051 19280,7006 19269,6963 19254,6922 19235,6883 19212,6846 19187,6812 19158,6780 19126,6751 19091,6725 19054,6703 19015,6684 18974,6669 18931,6658 18887,6651 18841,6649 Z"/>
        </g>
       </g>
      </g>
      <g class="Group">
       <g class="com.sun.star.drawing.PolyPolygonShape">
        <g id="id41">
         <rect class="BoundingBox" stroke="none" fill="none" x="18371" y="9676" width="893" height="892"/>
         <path fill="rgb(201,33,30)" stroke="none" d="M 19263,10115 L 19260,10070 19252,10026 19241,9983 19225,9942 19206,9904 19183,9867 19157,9833 19128,9802 19095,9774 19061,9749 19024,9727 18984,9709 18943,9694 18900,9684 18856,9678 18811,9676 18765,9679 18721,9686 18679,9698 18638,9714 18599,9733 18563,9756 18529,9782 18498,9811 18469,9844 18444,9878 18422,9915 18404,9955 18390,9996 18379,10039 18373,10083 18372,10128 18375,10174 18382,10218 18394,10260 18409,10301 18429,10340 18452,10376 18478,10410 18507,10441 18539,10469 18574,10494 18611,10516 18650,10534 18691,10549 18734,10559 18778,10565 18824,10567 18869,10563 18913,10556 18956,10544 18997,10529 19035,10509 19072,10487 19106,10460 19137,10431 19165,10399 19190,10365 19212,10328 19230,10288 19245,10247 19255,10205 19261,10161 19263,10115 Z"/>
        </g>
       </g>
       <g class="com.sun.star.drawing.PolyPolygonShape">
        <g id="id42">
         <rect class="BoundingBox" stroke="none" fill="none" x="18390" y="10938" width="893" height="894"/>
         <path fill="rgb(201,33,30)" stroke="none" d="M 19282,11378 L 19279,11332 19271,11288 19260,11246 19244,11205 19225,11166 19202,11130 19176,11096 19147,11065 19114,11036 19080,11011 19043,10989 19003,10971 18962,10957 18919,10946 18875,10940 18830,10939 18784,10942 18740,10949 18698,10961 18657,10976 18618,10996 18582,11019 18548,11045 18516,11074 18488,11106 18463,11141 18441,11178 18423,11217 18409,11258 18398,11301 18392,11345 18391,11391 18394,11436 18401,11481 18413,11523 18428,11564 18448,11602 18471,11639 18497,11673 18526,11704 18558,11732 18593,11757 18630,11779 18669,11798 18710,11812 18753,11822 18797,11828 18843,11830 18888,11827 18932,11820 18975,11808 19016,11792 19054,11773 19091,11750 19125,11724 19156,11695 19184,11663 19209,11628 19231,11591 19249,11552 19264,11510 19274,11468 19280,11423 19282,11378 Z"/>
        </g>
       </g>
       <g class="com.sun.star.drawing.PolyPolygonShape">
        <g id="id43">
         <rect class="BoundingBox" stroke="none" fill="none" x="18409" y="12158" width="893" height="892"/>
         <path fill="rgb(201,33,30)" stroke="none" d="M 19300,12597 L 19297,12551 19290,12507 19278,12465 19262,12424 19243,12385 19220,12349 19194,12315 19165,12284 19133,12256 19098,12230 19061,12209 19022,12191 18981,12176 18938,12166 18894,12160 18848,12158 18803,12161 18759,12169 18716,12181 18675,12196 18637,12216 18600,12238 18566,12265 18535,12294 18507,12326 18482,12360 18460,12397 18442,12437 18427,12478 18417,12520 18411,12564 18409,12610 18412,12655 18420,12699 18431,12742 18447,12783 18466,12821 18489,12858 18515,12892 18544,12923 18577,12951 18611,12976 18648,12998 18688,13016 18729,13031 18771,13041 18816,13047 18861,13049 18907,13046 18951,13039 18993,13027 19034,13011 19073,12992 19109,12969 19143,12943 19174,12914 19203,12881 19228,12847 19250,12810 19268,12770 19282,12729 19293,12686 19299,12642 19300,12597 Z"/>
        </g>
       </g>
      </g>
      <g class="com.sun.star.drawing.PolyPolygonShape">
       <g id="id44">
        <rect class="BoundingBox" stroke="none" fill="none" x="11101" y="13918" width="738" height="1024"/>
        <path fill="rgb(89,131,176)" stroke="none" d="M 11838,14940 L 11102,14539 11102,14318 11838,13919 11838,14180 11325,14426 11838,14681 11838,14940 Z"/>
       </g>
      </g>
      <g class="com.sun.star.drawing.PolyPolygonShape">
       <g id="id45">
        <rect class="BoundingBox" stroke="none" fill="none" x="11962" y="13778" width="644" height="1304"/>
        <path fill="rgb(89,131,176)" stroke="none" d="M 11963,15080 L 12450,13779 12604,13779 12116,15080 11963,15080 Z"/>
       </g>
      </g>
      <g class="com.sun.star.drawing.PolyPolygonShape">
       <g id="id46">
        <rect class="BoundingBox" stroke="none" fill="none" x="12769" y="13918" width="738" height="1024"/>
        <path fill="rgb(89,131,176)" stroke="none" d="M 12769,14940 L 12769,14681 13282,14428 12769,14177 12769,13919 13505,14318 13505,14538 12769,14940 Z"/>
       </g>
      </g>
      <g class="Group">
       <g class="com.sun.star.drawing.PolyPolygonShape">
        <g id="id47">
         <rect class="BoundingBox" stroke="none" fill="none" x="3665" y="8924" width="868" height="701"/>
         <path fill="rgb(255,0,0)" stroke="none" d="M 3924,9545 L 3959,9485 3911,9457 3876,9517 3876,9517 3720,8924 3666,8939 3846,9624 4531,9443 4517,9389 3925,9545 3924,9545 Z"/>
        </g>
       </g>
       <g class="com.sun.star.drawing.PolyPolygonShape">
        <g id="id48">
         <rect class="BoundingBox" stroke="none" fill="none" x="4460" y="8393" width="121" height="152"/>
         <path fill="rgb(255,0,0)" stroke="none" d="M 4544,8482 L 4508,8543 4460,8515 4531,8393 4580,8422 4544,8482 Z"/>
        </g>
       </g>
       <g class="com.sun.star.drawing.PolyPolygonShape">
        <g id="id49">
         <rect class="BoundingBox" stroke="none" fill="none" x="4087" y="9031" width="122" height="152"/>
         <path fill="rgb(255,0,0)" stroke="none" d="M 4172,9121 L 4137,9181 4088,9153 4159,9031 4207,9060 4172,9121 Z"/>
        </g>
       </g>
       <g class="com.sun.star.drawing.PolyPolygonShape">
        <g id="id50">
         <rect class="BoundingBox" stroke="none" fill="none" x="3964" y="9244" width="121" height="152"/>
         <path fill="rgb(255,0,0)" stroke="none" d="M 4048,9333 L 4013,9394 3964,9366 4035,9244 4084,9272 4048,9333 Z"/>
        </g>
       </g>
       <g class="com.sun.star.drawing.PolyPolygonShape">
        <g id="id51">
         <rect class="BoundingBox" stroke="none" fill="none" x="4212" y="8818" width="121" height="152"/>
         <path fill="rgb(255,0,0)" stroke="none" d="M 4296,8908 L 4260,8969 4212,8940 4283,8819 4332,8847 4296,8908 Z"/>
        </g>
       </g>
       <g class="com.sun.star.drawing.PolyPolygonShape">
        <g id="id52">
         <rect class="BoundingBox" stroke="none" fill="none" x="4335" y="8605" width="122" height="153"/>
         <path fill="rgb(255,0,0)" stroke="none" d="M 4420,8695 L 4385,8756 4336,8728 4407,8606 4455,8634 4420,8695 Z"/>
        </g>
       </g>
       <g class="com.sun.star.drawing.PolyPolygonShape">
        <g id="id53">
         <rect class="BoundingBox" stroke="none" fill="none" x="6899" y="4963" width="1109" height="1172"/>
         <path fill="rgb(255,0,0)" stroke="none" d="M 7073,5819 L 7171,5778 7131,5713 7032,5755 7032,5755 7328,4986 7243,4964 6900,5852 7980,6134 8006,6064 7074,5821 7073,5819 Z"/>
        </g>
       </g>
       <g class="com.sun.star.drawing.PolyPolygonShape">
        <g id="id54">
         <rect class="BoundingBox" stroke="none" fill="none" x="8678" y="4966" width="243" height="153"/>
         <path fill="rgb(255,0,0)" stroke="none" d="M 8819,5075 L 8719,5117 8678,5052 8878,4966 8919,5032 8819,5075 Z"/>
        </g>
       </g>
       <g class="com.sun.star.drawing.PolyPolygonShape">
        <g id="id55">
         <rect class="BoundingBox" stroke="none" fill="none" x="7629" y="5414" width="243" height="153"/>
         <path fill="rgb(255,0,0)" stroke="none" d="M 7771,5523 L 7671,5565 7629,5499 7830,5414 7870,5480 7771,5523 Z"/>
        </g>
       </g>
       <g class="com.sun.star.drawing.PolyPolygonShape">
        <g id="id56">
         <rect class="BoundingBox" stroke="none" fill="none" x="7280" y="5563" width="243" height="153"/>
         <path fill="rgb(255,0,0)" stroke="none" d="M 7421,5672 L 7322,5715 7280,5649 7480,5563 7521,5629 7421,5672 Z"/>
        </g>
       </g>
       <g class="com.sun.star.drawing.PolyPolygonShape">
        <g id="id57">
         <rect class="BoundingBox" stroke="none" fill="none" x="7979" y="5264" width="243" height="153"/>
         <path fill="rgb(255,0,0)" stroke="none" d="M 8120,5373 L 8020,5416 7979,5351 8179,5265 8220,5331 8120,5373 Z"/>
        </g>
       </g>
       <g class="com.sun.star.drawing.PolyPolygonShape">
        <g id="id58">
         <rect class="BoundingBox" stroke="none" fill="none" x="8328" y="5115" width="243" height="153"/>
         <path fill="rgb(255,0,0)" stroke="none" d="M 8470,5224 L 8370,5267 8328,5201 8529,5116 8569,5181 8470,5224 Z"/>
        </g>
       </g>
       <g class="com.sun.star.drawing.PolyPolygonShape">
        <g id="id59">
         <rect class="BoundingBox" stroke="none" fill="none" x="10899" y="8965" width="868" height="701"/>
         <path fill="rgb(255,0,0)" stroke="none" d="M 11158,9586 L 11193,9526 11145,9498 11110,9558 11110,9558 10954,8965 10900,8980 11080,9665 11765,9484 11751,9430 11159,9586 11158,9586 Z"/>
        </g>
       </g>
       <g class="com.sun.star.drawing.PolyPolygonShape">
        <g id="id60">
         <rect class="BoundingBox" stroke="none" fill="none" x="11694" y="8434" width="121" height="152"/>
         <path fill="rgb(255,0,0)" stroke="none" d="M 11778,8523 L 11742,8584 11694,8556 11765,8434 11814,8463 11778,8523 Z"/>
        </g>
       </g>
       <g class="com.sun.star.drawing.PolyPolygonShape">
        <g id="id61">
         <rect class="BoundingBox" stroke="none" fill="none" x="11321" y="9072" width="122" height="152"/>
         <path fill="rgb(255,0,0)" stroke="none" d="M 11406,9162 L 11371,9222 11322,9194 11393,9072 11441,9101 11406,9162 Z"/>
        </g>
       </g>
       <g class="com.sun.star.drawing.PolyPolygonShape">
        <g id="id62">
         <rect class="BoundingBox" stroke="none" fill="none" x="11198" y="9285" width="121" height="152"/>
         <path fill="rgb(255,0,0)" stroke="none" d="M 11282,9374 L 11247,9435 11198,9407 11269,9285 11318,9313 11282,9374 Z"/>
        </g>
       </g>
       <g class="com.sun.star.drawing.PolyPolygonShape">
        <g id="id63">
         <rect class="BoundingBox" stroke="none" fill="none" x="11446" y="8859" width="121" height="152"/>
         <path fill="rgb(255,0,0)" stroke="none" d="M 11530,8949 L 11494,9010 11446,8981 11517,8860 11566,8888 11530,8949 Z"/>
        </g>
       </g>
       <g class="com.sun.star.drawing.PolyPolygonShape">
        <g id="id64">
         <rect class="BoundingBox" stroke="none" fill="none" x="11569" y="8646" width="122" height="153"/>
         <path fill="rgb(255,0,0)" stroke="none" d="M 11654,8736 L 11619,8797 11570,8769 11641,8647 11689,8675 11654,8736 Z"/>
        </g>
       </g>
       <g class="com.sun.star.drawing.PolyPolygonShape">
        <g id="id65">
         <rect class="BoundingBox" stroke="none" fill="none" x="9099" y="12334" width="868" height="701"/>
         <path fill="rgb(255,0,0)" stroke="none" d="M 9358,12955 L 9393,12895 9345,12867 9310,12927 9310,12927 9154,12334 9100,12349 9280,13034 9965,12853 9951,12799 9359,12955 9358,12955 Z"/>
        </g>
       </g>
       <g class="com.sun.star.drawing.PolyPolygonShape">
        <g id="id66">
         <rect class="BoundingBox" stroke="none" fill="none" x="9894" y="11803" width="121" height="152"/>
         <path fill="rgb(255,0,0)" stroke="none" d="M 9978,11892 L 9942,11953 9894,11925 9965,11803 10014,11832 9978,11892 Z"/>
        </g>
       </g>
       <g class="com.sun.star.drawing.PolyPolygonShape">
        <g id="id67">
         <rect class="BoundingBox" stroke="none" fill="none" x="9521" y="12441" width="122" height="152"/>
         <path fill="rgb(255,0,0)" stroke="none" d="M 9606,12531 L 9571,12591 9522,12563 9593,12441 9641,12470 9606,12531 Z"/>
        </g>
       </g>
       <g class="com.sun.star.drawing.PolyPolygonShape">
        <g id="id68">
         <rect class="BoundingBox" stroke="none" fill="none" x="9398" y="12654" width="121" height="152"/>
         <path fill="rgb(255,0,0)" stroke="none" d="M 9482,12743 L 9447,12804 9398,12776 9469,12654 9518,12682 9482,12743 Z"/>
        </g>
       </g>
       <g class="com.sun.star.drawing.PolyPolygonShape">
        <g id="id69">
         <rect class="BoundingBox" stroke="none" fill="none" x="9646" y="12228" width="121" height="152"/>
         <path fill="rgb(255,0,0)" stroke="none" d="M 9730,12318 L 9694,12379 9646,12350 9717,12229 9766,12257 9730,12318 Z"/>
        </g>
       </g>
       <g class="com.sun.star.drawing.PolyPolygonShape">
        <g id="id70">
         <rect class="BoundingBox" stroke="none" fill="none" x="9769" y="12015" width="122" height="153"/>
         <path fill="rgb(255,0,0)" stroke="none" d="M 9854,12105 L 9819,12166 9770,12138 9841,12016 9889,12044 9854,12105 Z"/>
        </g>
       </g>
       <g class="com.sun.star.drawing.PolyPolygonShape">
        <g id="id71">
         <rect class="BoundingBox" stroke="none" fill="none" x="12785" y="12534" width="868" height="701"/>
         <path fill="rgb(255,0,0)" stroke="none" d="M 13044,13155 L 13079,13095 13031,13067 12996,13127 12996,13127 12840,12534 12786,12549 12966,13234 13651,13053 13637,12999 13045,13155 13044,13155 Z"/>
        </g>
       </g>
       <g class="com.sun.star.drawing.PolyPolygonShape">
        <g id="id72">
         <rect class="BoundingBox" stroke="none" fill="none" x="13580" y="12003" width="121" height="152"/>
         <path fill="rgb(255,0,0)" stroke="none" d="M 13664,12092 L 13628,12153 13580,12125 13651,12003 13700,12032 13664,12092 Z"/>
        </g>
       </g>
       <g class="com.sun.star.drawing.PolyPolygonShape">
        <g id="id73">
         <rect class="BoundingBox" stroke="none" fill="none" x="13207" y="12641" width="122" height="152"/>
         <path fill="rgb(255,0,0)" stroke="none" d="M 13292,12731 L 13257,12791 13208,12763 13279,12641 13327,12670 13292,12731 Z"/>
        </g>
       </g>
       <g class="com.sun.star.drawing.PolyPolygonShape">
        <g id="id74">
         <rect class="BoundingBox" stroke="none" fill="none" x="13084" y="12854" width="121" height="152"/>
         <path fill="rgb(255,0,0)" stroke="none" d="M 13168,12943 L 13133,13004 13084,12976 13155,12854 13204,12882 13168,12943 Z"/>
        </g>
       </g>
       <g class="com.sun.star.drawing.PolyPolygonShape">
        <g id="id75">
         <rect class="BoundingBox" stroke="none" fill="none" x="13332" y="12428" width="121" height="152"/>
         <path fill="rgb(255,0,0)" stroke="none" d="M 13416,12518 L 13380,12579 13332,12550 13403,12429 13452,12457 13416,12518 Z"/>
        </g>
       </g>
       <g class="com.sun.star.drawing.PolyPolygonShape">
        <g id="id76">
         <rect class="BoundingBox" stroke="none" fill="none" x="13455" y="12215" width="122" height="153"/>
         <path fill="rgb(255,0,0)" stroke="none" d="M 13540,12305 L 13505,12366 13456,12338 13527,12216 13575,12244 13540,12305 Z"/>
        </g>
       </g>
       <g class="com.sun.star.drawing.PolyPolygonShape">
        <g id="id77">
         <rect class="BoundingBox" stroke="none" fill="none" x="16140" y="4874" width="961" height="1262"/>
         <path fill="rgb(255,0,0)" stroke="none" d="M 16977,5805 L 16888,5746 16856,5816 16946,5875 16946,5875 16141,6050 16169,6134 17100,5932 16740,4875 16667,4891 16978,5804 16977,5805 Z"/>
        </g>
       </g>
       <g class="com.sun.star.drawing.PolyPolygonShape">
        <g id="id78">
         <rect class="BoundingBox" stroke="none" fill="none" x="15271" y="4696" width="215" height="193"/>
         <path fill="rgb(255,0,0)" stroke="none" d="M 15394,4757 L 15485,4817 15453,4887 15271,4768 15303,4697 15394,4757 Z"/>
        </g>
       </g>
       <g class="com.sun.star.drawing.PolyPolygonShape">
        <g id="id79">
         <rect class="BoundingBox" stroke="none" fill="none" x="16222" y="5326" width="215" height="192"/>
         <path fill="rgb(255,0,0)" stroke="none" d="M 16345,5386 L 16436,5446 16404,5517 16222,5396 16254,5327 16345,5386 Z"/>
        </g>
       </g>
       <g class="com.sun.star.drawing.PolyPolygonShape">
        <g id="id80">
         <rect class="BoundingBox" stroke="none" fill="none" x="16539" y="5535" width="215" height="192"/>
         <path fill="rgb(255,0,0)" stroke="none" d="M 16662,5596 L 16753,5655 16721,5726 16539,5607 16571,5536 16662,5596 Z"/>
        </g>
       </g>
       <g class="com.sun.star.drawing.PolyPolygonShape">
        <g id="id81">
         <rect class="BoundingBox" stroke="none" fill="none" x="15905" y="5116" width="215" height="192"/>
         <path fill="rgb(255,0,0)" stroke="none" d="M 16028,5177 L 16119,5237 16087,5307 15905,5187 15937,5116 16028,5177 Z"/>
        </g>
       </g>
       <g class="com.sun.star.drawing.PolyPolygonShape">
        <g id="id82">
         <rect class="BoundingBox" stroke="none" fill="none" x="15588" y="4907" width="215" height="192"/>
         <path fill="rgb(255,0,0)" stroke="none" d="M 15711,4966 L 15802,5027 15770,5097 15588,4977 15620,4907 15711,4966 Z"/>
        </g>
       </g>
      </g>
      <g class="Group">
       <g class="com.sun.star.drawing.PolyPolygonShape">
        <g id="id83">
         <rect class="BoundingBox" stroke="none" fill="none" x="5800" y="8975" width="952" height="660"/>
         <path fill="rgb(255,0,0)" stroke="none" d="M 6426,9523 L 6404,9457 6351,9475 6373,9540 6373,9540 5825,9266 5800,9316 6433,9634 6750,9000 6700,8975 6427,9523 6426,9523 Z"/>
        </g>
       </g>
       <g class="com.sun.star.drawing.PolyPolygonShape">
        <g id="id84">
         <rect class="BoundingBox" stroke="none" fill="none" x="5961" y="8288" width="100" height="153"/>
         <path fill="rgb(255,0,0)" stroke="none" d="M 6038,8356 L 6060,8423 6007,8440 5962,8307 6015,8289 6038,8356 Z"/>
        </g>
       </g>
       <g class="com.sun.star.drawing.PolyPolygonShape">
        <g id="id85">
         <rect class="BoundingBox" stroke="none" fill="none" x="6195" y="8989" width="100" height="154"/>
         <path fill="rgb(255,0,0)" stroke="none" d="M 6271,9056 L 6293,9123 6240,9141 6195,9007 6248,8990 6271,9056 Z"/>
        </g>
       </g>
       <g class="com.sun.star.drawing.PolyPolygonShape">
        <g id="id86">
         <rect class="BoundingBox" stroke="none" fill="none" x="6272" y="9223" width="101" height="153"/>
         <path fill="rgb(255,0,0)" stroke="none" d="M 6349,9290 L 6371,9357 6318,9375 6273,9241 6326,9223 6349,9290 Z"/>
        </g>
       </g>
       <g class="com.sun.star.drawing.PolyPolygonShape">
        <g id="id87">
         <rect class="BoundingBox" stroke="none" fill="none" x="6117" y="8756" width="100" height="153"/>
         <path fill="rgb(255,0,0)" stroke="none" d="M 6193,8823 L 6215,8890 6162,8907 6117,8774 6171,8756 6193,8823 Z"/>
        </g>
       </g>
       <g class="com.sun.star.drawing.PolyPolygonShape">
        <g id="id88">
         <rect class="BoundingBox" stroke="none" fill="none" x="6039" y="8522" width="100" height="153"/>
         <path fill="rgb(255,0,0)" stroke="none" d="M 6116,8589 L 6138,8656 6084,8674 6040,8540 6093,8523 6116,8589 Z"/>
        </g>
       </g>
      </g>
      <g class="Group">
       <g class="com.sun.star.drawing.PolyPolygonShape">
        <g id="id89">
         <rect class="BoundingBox" stroke="none" fill="none" x="2899" y="12786" width="1003" height="558"/>
         <path fill="rgb(255,0,0)" stroke="none" d="M 3415,13235 L 3417,13166 3361,13164 3359,13234 3359,13234 2940,12786 2899,12825 3383,13342 3900,12857 3862,12817 3416,13235 3415,13235 Z"/>
        </g>
       </g>
       <g class="com.sun.star.drawing.PolyPolygonShape">
        <g id="id90">
         <rect class="BoundingBox" stroke="none" fill="none" x="3396" y="11933" width="63" height="145"/>
         <path fill="rgb(255,0,0)" stroke="none" d="M 3455,12006 L 3453,12076 3397,12074 3401,11934 3457,11935 3455,12006 Z"/>
        </g>
       </g>
       <g class="com.sun.star.drawing.PolyPolygonShape">
        <g id="id91">
         <rect class="BoundingBox" stroke="none" fill="none" x="3372" y="12671" width="63" height="145"/>
         <path fill="rgb(255,0,0)" stroke="none" d="M 3431,12744 L 3429,12815 3373,12813 3377,12672 3433,12674 3431,12744 Z"/>
        </g>
       </g>
       <g class="com.sun.star.drawing.PolyPolygonShape">
        <g id="id92">
         <rect class="BoundingBox" stroke="none" fill="none" x="3364" y="12918" width="63" height="144"/>
         <path fill="rgb(255,0,0)" stroke="none" d="M 3423,12990 L 3421,13061 3365,13059 3369,12918 3425,12920 3423,12990 Z"/>
        </g>
       </g>
       <g class="com.sun.star.drawing.PolyPolygonShape">
        <g id="id93">
         <rect class="BoundingBox" stroke="none" fill="none" x="3380" y="12425" width="63" height="145"/>
         <path fill="rgb(255,0,0)" stroke="none" d="M 3439,12498 L 3437,12569 3381,12567 3385,12426 3441,12428 3439,12498 Z"/>
        </g>
       </g>
       <g class="com.sun.star.drawing.PolyPolygonShape">
        <g id="id94">
         <rect class="BoundingBox" stroke="none" fill="none" x="3388" y="12179" width="63" height="145"/>
         <path fill="rgb(255,0,0)" stroke="none" d="M 3447,12252 L 3445,12322 3389,12321 3393,12180 3449,12182 3447,12252 Z"/>
        </g>
       </g>
      </g>
      <g class="Group">
       <g class="com.sun.star.drawing.PolyPolygonShape">
        <g id="id95">
         <rect class="BoundingBox" stroke="none" fill="none" x="11900" y="5696" width="1003" height="548"/>
         <path fill="rgb(255,0,0)" stroke="none" d="M 12432,6134 L 12432,6065 12376,6065 12377,6135 12377,6135 11940,5706 11900,5746 12406,6242 12902,5736 12862,5697 12433,6134 12432,6134 Z"/>
        </g>
       </g>
       <g class="com.sun.star.drawing.PolyPolygonShape">
        <g id="id96">
         <rect class="BoundingBox" stroke="none" fill="none" x="12363" y="4833" width="59" height="143"/>
         <path fill="rgb(255,0,0)" stroke="none" d="M 12420,4904 L 12421,4975 12365,4975 12363,4834 12420,4834 12420,4904 Z"/>
        </g>
       </g>
       <g class="com.sun.star.drawing.PolyPolygonShape">
        <g id="id97">
         <rect class="BoundingBox" stroke="none" fill="none" x="12371" y="5572" width="59" height="143"/>
         <path fill="rgb(255,0,0)" stroke="none" d="M 12428,5643 L 12429,5713 12372,5714 12371,5573 12427,5572 12428,5643 Z"/>
        </g>
       </g>
       <g class="com.sun.star.drawing.PolyPolygonShape">
        <g id="id98">
         <rect class="BoundingBox" stroke="none" fill="none" x="12373" y="5818" width="60" height="143"/>
         <path fill="rgb(255,0,0)" stroke="none" d="M 12430,5889 L 12431,5959 12375,5960 12373,5819 12430,5818 12430,5889 Z"/>
        </g>
       </g>
       <g class="com.sun.star.drawing.PolyPolygonShape">
        <g id="id99">
         <rect class="BoundingBox" stroke="none" fill="none" x="12368" y="5326" width="59" height="143"/>
         <path fill="rgb(255,0,0)" stroke="none" d="M 12425,5397 L 12426,5467 12370,5467 12368,5327 12425,5326 12425,5397 Z"/>
        </g>
       </g>
       <g class="com.sun.star.drawing.PolyPolygonShape">
        <g id="id100">
         <rect class="BoundingBox" stroke="none" fill="none" x="12366" y="5079" width="59" height="144"/>
         <path fill="rgb(255,0,0)" stroke="none" d="M 12423,5150 L 12424,5221 12367,5221 12366,5080 12422,5080 12423,5150 Z"/>
        </g>
       </g>
      </g>
      <g class="Group">
       <g class="com.sun.star.drawing.PolyPolygonShape">
        <g id="id101">
         <rect class="BoundingBox" stroke="none" fill="none" x="13400" y="8920" width="952" height="660"/>
         <path fill="rgb(255,0,0)" stroke="none" d="M 14026,9468 L 14004,9402 13951,9420 13973,9485 13973,9485 13425,9211 13400,9261 14033,9579 14350,8945 14300,8920 14027,9468 14026,9468 Z"/>
        </g>
       </g>
       <g class="com.sun.star.drawing.PolyPolygonShape">
        <g id="id102">
         <rect class="BoundingBox" stroke="none" fill="none" x="13561" y="8233" width="100" height="153"/>
         <path fill="rgb(255,0,0)" stroke="none" d="M 13638,8301 L 13660,8368 13607,8385 13562,8252 13615,8234 13638,8301 Z"/>
        </g>
       </g>
       <g class="com.sun.star.drawing.PolyPolygonShape">
        <g id="id103">
         <rect class="BoundingBox" stroke="none" fill="none" x="13795" y="8934" width="100" height="154"/>
         <path fill="rgb(255,0,0)" stroke="none" d="M 13871,9001 L 13893,9068 13840,9086 13795,8952 13848,8935 13871,9001 Z"/>
        </g>
       </g>
       <g class="com.sun.star.drawing.PolyPolygonShape">
        <g id="id104">
         <rect class="BoundingBox" stroke="none" fill="none" x="13872" y="9168" width="101" height="153"/>
         <path fill="rgb(255,0,0)" stroke="none" d="M 13949,9235 L 13971,9302 13918,9320 13873,9186 13926,9168 13949,9235 Z"/>
        </g>
       </g>
       <g class="com.sun.star.drawing.PolyPolygonShape">
        <g id="id105">
         <rect class="BoundingBox" stroke="none" fill="none" x="13717" y="8701" width="100" height="153"/>
         <path fill="rgb(255,0,0)" stroke="none" d="M 13793,8768 L 13815,8835 13762,8852 13717,8719 13771,8701 13793,8768 Z"/>
        </g>
       </g>
       <g class="com.sun.star.drawing.PolyPolygonShape">
        <g id="id106">
         <rect class="BoundingBox" stroke="none" fill="none" x="13639" y="8467" width="100" height="153"/>
         <path fill="rgb(255,0,0)" stroke="none" d="M 13716,8534 L 13738,8601 13684,8619 13640,8485 13693,8468 13716,8534 Z"/>
        </g>
       </g>
      </g>
      <g class="Group">
       <g class="com.sun.star.drawing.PolyPolygonShape">
        <g id="id107">
         <rect class="BoundingBox" stroke="none" fill="none" x="14950" y="12575" width="952" height="660"/>
         <path fill="rgb(255,0,0)" stroke="none" d="M 15576,13123 L 15554,13057 15501,13075 15523,13140 15523,13140 14975,12866 14950,12916 15583,13234 15900,12600 15850,12575 15577,13123 15576,13123 Z"/>
        </g>
       </g>
       <g class="com.sun.star.drawing.PolyPolygonShape">
        <g id="id108">
         <rect class="BoundingBox" stroke="none" fill="none" x="15111" y="11888" width="100" height="153"/>
         <path fill="rgb(255,0,0)" stroke="none" d="M 15188,11956 L 15210,12023 15157,12040 15112,11907 15165,11889 15188,11956 Z"/>
        </g>
       </g>
       <g class="com.sun.star.drawing.PolyPolygonShape">
        <g id="id109">
         <rect class="BoundingBox" stroke="none" fill="none" x="15345" y="12589" width="100" height="154"/>
         <path fill="rgb(255,0,0)" stroke="none" d="M 15421,12656 L 15443,12723 15390,12741 15345,12607 15398,12590 15421,12656 Z"/>
        </g>
       </g>
       <g class="com.sun.star.drawing.PolyPolygonShape">
        <g id="id110">
         <rect class="BoundingBox" stroke="none" fill="none" x="15422" y="12823" width="101" height="153"/>
         <path fill="rgb(255,0,0)" stroke="none" d="M 15499,12890 L 15521,12957 15468,12975 15423,12841 15476,12823 15499,12890 Z"/>
        </g>
       </g>
       <g class="com.sun.star.drawing.PolyPolygonShape">
        <g id="id111">
         <rect class="BoundingBox" stroke="none" fill="none" x="15267" y="12356" width="100" height="153"/>
         <path fill="rgb(255,0,0)" stroke="none" d="M 15343,12423 L 15365,12490 15312,12507 15267,12374 15321,12356 15343,12423 Z"/>
        </g>
       </g>
       <g class="com.sun.star.drawing.PolyPolygonShape">
        <g id="id112">
         <rect class="BoundingBox" stroke="none" fill="none" x="15189" y="12122" width="100" height="153"/>
         <path fill="rgb(255,0,0)" stroke="none" d="M 15266,12189 L 15288,12256 15234,12274 15190,12140 15243,12123 15266,12189 Z"/>
        </g>
       </g>
      </g>
      <g class="Group">
       <g class="com.sun.star.drawing.PolyPolygonShape">
        <g id="id113">
         <rect class="BoundingBox" stroke="none" fill="none" x="14944" y="7705" width="1058" height="1131"/>
         <path fill="rgb(255,0,0)" stroke="none" d="M 15896,8553 L 15814,8498 15764,8560 15847,8615 15847,8615 14944,8758 14956,8834 16000,8670 15848,7706 15766,7719 15897,8552 15896,8553 Z"/>
        </g>
       </g>
       <g class="com.sun.star.drawing.PolyPolygonShape">
        <g id="id114">
         <rect class="BoundingBox" stroke="none" fill="none" x="14294" y="7514" width="220" height="177"/>
         <path fill="rgb(255,0,0)" stroke="none" d="M 14428,7571 L 14512,7627 14462,7690 14294,7578 14344,7514 14428,7571 Z"/>
        </g>
       </g>
       <g class="com.sun.star.drawing.PolyPolygonShape">
        <g id="id115">
         <rect class="BoundingBox" stroke="none" fill="none" x="15176" y="8104" width="220" height="177"/>
         <path fill="rgb(255,0,0)" stroke="none" d="M 15310,8160 L 15394,8216 15344,8280 15176,8167 15226,8104 15310,8160 Z"/>
        </g>
       </g>
       <g class="com.sun.star.drawing.PolyPolygonShape">
        <g id="id116">
         <rect class="BoundingBox" stroke="none" fill="none" x="15469" y="8300" width="221" height="178"/>
         <path fill="rgb(255,0,0)" stroke="none" d="M 15604,8357 L 15688,8413 15638,8476 15470,8364 15520,8301 15604,8357 Z"/>
        </g>
       </g>
       <g class="com.sun.star.drawing.PolyPolygonShape">
        <g id="id117">
         <rect class="BoundingBox" stroke="none" fill="none" x="14881" y="7907" width="221" height="177"/>
         <path fill="rgb(255,0,0)" stroke="none" d="M 15016,7964 L 15100,8020 15050,8083 14882,7971 14932,7907 15016,7964 Z"/>
        </g>
       </g>
       <g class="com.sun.star.drawing.PolyPolygonShape">
        <g id="id118">
         <rect class="BoundingBox" stroke="none" fill="none" x="14588" y="7711" width="220" height="177"/>
         <path fill="rgb(255,0,0)" stroke="none" d="M 14722,7767 L 14806,7823 14756,7887 14588,7774 14638,7711 14722,7767 Z"/>
        </g>
       </g>
      </g>
      <g class="Group">
       <g class="com.sun.star.drawing.PolyPolygonShape">
        <g id="id119">
         <rect class="BoundingBox" stroke="none" fill="none" x="11196" y="3073" width="738" height="1024"/>
         <path fill="rgb(89,131,176)" stroke="none" d="M 11933,4095 L 11197,3694 11197,3473 11933,3074 11933,3335 11420,3581 11933,3836 11933,4095 Z"/>
        </g>
       </g>
       <g class="com.sun.star.drawing.PolyPolygonShape">
        <g id="id120">
         <rect class="BoundingBox" stroke="none" fill="none" x="12057" y="2933" width="644" height="1304"/>
         <path fill="rgb(89,131,176)" stroke="none" d="M 12058,4235 L 12545,2934 12699,2934 12211,4235 12058,4235 Z"/>
        </g>
       </g>
       <g class="com.sun.star.drawing.PolyPolygonShape">
        <g id="id121">
         <rect class="BoundingBox" stroke="none" fill="none" x="12864" y="3073" width="738" height="1024"/>
         <path fill="rgb(89,131,176)" stroke="none" d="M 12864,4095 L 12864,3836 13377,3583 12864,3332 12864,3074 13600,3473 13600,3693 12864,4095 Z"/>
        </g>
       </g>
      </g>
      <g class="Group">
       <g class="com.sun.star.drawing.PolyPolygonShape">
        <g id="id122">
         <rect class="BoundingBox" stroke="none" fill="none" x="2723" y="13635" width="975" height="201"/>
         <path fill="rgb(63,175,70)" stroke="none" d="M 2824,13835 L 3598,13835 3608,13834 3618,13833 3627,13830 3636,13827 3645,13823 3653,13818 3661,13812 3668,13806 3674,13799 3680,13791 3685,13783 3689,13775 3692,13765 3694,13756 3696,13746 3696,13736 3696,13726 3694,13716 3692,13706 3689,13697 3685,13688 3680,13680 3674,13672 3668,13665 3661,13659 3653,13653 3645,13648 3636,13644 3627,13641 3618,13638 3608,13637 3598,13636 2824,13636 2814,13637 2804,13638 2794,13641 2785,13644 2776,13648 2768,13653 2760,13659 2753,13665 2747,13672 2741,13680 2736,13688 2732,13697 2728,13706 2726,13716 2725,13726 2724,13736 2725,13746 2726,13756 2728,13765 2732,13775 2736,13783 2741,13791 2747,13799 2753,13806 2760,13812 2768,13818 2776,13823 2785,13827 2794,13830 2804,13833 2814,13834 2824,13835 Z"/>
        </g>
       </g>
       <g class="com.sun.star.drawing.PolyPolygonShape">
        <g id="id123">
         <rect class="BoundingBox" stroke="none" fill="none" x="2723" y="14151" width="1585" height="201"/>
         <path fill="rgb(63,175,70)" stroke="none" d="M 2824,14351 L 4207,14351 4217,14350 4227,14349 4237,14346 4246,14343 4254,14339 4263,14334 4270,14328 4277,14322 4284,14315 4289,14307 4294,14299 4298,14290 4302,14281 4304,14272 4306,14262 4306,14252 4306,14241 4304,14232 4302,14222 4298,14213 4294,14204 4289,14196 4284,14188 4277,14181 4270,14175 4263,14169 4254,14164 4246,14160 4237,14156 4227,14154 4217,14152 4207,14152 2824,14152 2814,14152 2804,14154 2794,14156 2785,14160 2776,14164 2768,14169 2760,14175 2753,14181 2747,14188 2741,14196 2736,14204 2732,14213 2728,14222 2726,14232 2725,14241 2724,14252 2725,14262 2726,14272 2728,14281 2732,14290 2736,14299 2741,14307 2747,14315 2753,14322 2760,14328 2768,14334 2776,14339 2785,14343 2794,14346 2804,14349 2814,14350 2824,14351 Z"/>
        </g>
       </g>
       <g class="com.sun.star.drawing.PolyPolygonShape">
        <g id="id124">
         <rect class="BoundingBox" stroke="none" fill="none" x="2723" y="14667" width="1398" height="202"/>
         <path fill="rgb(63,175,70)" stroke="none" d="M 2824,14867 L 4019,14867 4029,14867 4039,14865 4049,14863 4058,14859 4067,14855 4075,14850 4083,14844 4090,14838 4096,14831 4102,14823 4107,14815 4111,14806 4115,14797 4117,14787 4119,14778 4119,14767 4119,14757 4117,14747 4115,14738 4111,14729 4107,14720 4102,14712 4096,14704 4090,14697 4083,14690 4075,14685 4067,14680 4058,14675 4049,14672 4039,14669 4029,14668 4019,14667 2824,14667 2814,14668 2804,14669 2794,14672 2785,14675 2776,14680 2768,14685 2760,14690 2753,14697 2747,14704 2741,14712 2736,14720 2732,14729 2728,14738 2726,14747 2725,14757 2724,14767 2725,14778 2726,14787 2728,14797 2732,14806 2736,14815 2741,14823 2747,14831 2753,14838 2760,14844 2768,14850 2776,14855 2785,14859 2794,14863 2804,14865 2814,14867 2824,14867 Z"/>
        </g>
       </g>
       <g class="com.sun.star.drawing.PolyPolygonShape">
        <g id="id125">
         <rect class="BoundingBox" stroke="none" fill="none" x="2723" y="15213" width="1773" height="201"/>
         <path fill="rgb(63,175,70)" stroke="none" d="M 4394,15213 L 2824,15213 2814,15214 2804,15215 2794,15218 2785,15221 2776,15225 2768,15230 2760,15236 2753,15242 2747,15249 2741,15257 2736,15265 2732,15273 2728,15283 2726,15292 2725,15302 2724,15312 2725,15322 2726,15332 2728,15342 2732,15351 2736,15360 2741,15368 2747,15376 2753,15383 2760,15389 2768,15395 2776,15400 2785,15404 2794,15407 2804,15410 2814,15411 2824,15412 4394,15412 4404,15411 4414,15410 4424,15407 4433,15404 4442,15400 4450,15395 4458,15389 4465,15383 4471,15376 4477,15368 4482,15360 4486,15351 4490,15342 4492,15332 4493,15322 4494,15312 4493,15302 4492,15292 4490,15283 4486,15273 4482,15265 4477,15257 4471,15249 4465,15242 4458,15236 4450,15230 4442,15225 4433,15221 4424,15218 4414,15215 4404,15214 4394,15213 Z"/>
        </g>
       </g>
      </g>
      <g class="com.sun.star.drawing.CustomShape">
       <g id="id126">
        <rect class="BoundingBox" stroke="none" fill="none" x="14199" y="12733" width="3603" height="3801"/>
        <path fill="none" stroke="rgb(232,162,2)" stroke-width="200" stroke-linejoin="round" d="M 16000,12833 C 16313,12833 16579,12908 16850,13074 17121,13240 17316,13446 17473,13733 17629,14020 17701,14302 17701,14633 17701,14964 17629,15246 17473,15533 17316,15820 17121,16026 16850,16192 16579,16358 16313,16433 16000,16433 15687,16433 15421,16358 15150,16192 14879,16026 14684,15820 14527,15533 14371,15246 14300,14964 14300,14633 14300,14302 14371,14020 14527,13733 14684,13446 14879,13240 15150,13074 15421,12908 15687,12833 16000,12833 L 16000,12833 Z"/>
       </g>
      </g>
      <g class="com.sun.star.drawing.CustomShape">
       <g id="id127">
        <rect class="BoundingBox" stroke="none" fill="none" x="1799" y="12733" width="3603" height="3801"/>
        <path fill="none" stroke="rgb(232,162,2)" stroke-width="200" stroke-linejoin="round" d="M 3600,12833 C 3913,12833 4179,12908 4450,13074 4721,13240 4916,13446 5073,13733 5229,14020 5301,14302 5301,14633 5301,14964 5229,15246 5073,15533 4916,15820 4721,16026 4450,16192 4179,16358 3913,16433 3600,16433 3287,16433 3021,16358 2750,16192 2479,16026 2284,15820 2127,15533 1971,15246 1899,14964 1899,14633 1899,14302 1971,14020 2127,13733 2284,13446 2479,13240 2750,13074 3021,12908 3287,12833 3600,12833 L 3600,12833 Z"/>
       </g>
      </g>
      <g class="Graphic">
       <g id="id128">
        <rect class="BoundingBox" stroke="none" fill="none" x="3900" y="14834" width="3316" height="3316"/>
        <defs>
         <clipPath id="clip_path_1" clipPathUnits="userSpaceOnUse">
          <path d="M 3900,14834 L 7215,14834 7215,18149 3900,18149 3900,14834 Z"/>
         </clipPath>
        </defs>
        <g clip-path="url(#clip_path_1)">
         <path fill="rgb(0,0,0)" stroke="none" d="M 6662,16293 L 5449,15965 5449,15003 C 5449,14958 5431,14915 5400,14883 5368,14852 5325,14834 5280,14834 L 5116,14834 C 5072,14834 5029,14852 4997,14883 4965,14915 4948,14958 4948,15003 L 4948,16481 4687,16296 C 4650,16270 4604,16260 4559,16268 4514,16276 4475,16302 4449,16340 L 4368,16461 C 4329,16518 4329,16594 4369,16651 L 4948,17492 4948,17980 C 4948,18073 5023,18149 5116,18149 L 6330,18149 C 6330,18149 6330,18149 6330,18149 6423,18149 6498,18074 6498,17980 L 6498,17877 6753,17431 C 6768,17405 6775,17376 6775,17347 L 6776,16452 C 6776,16380 6730,16316 6662,16293 L 6662,16293 Z"/>
        </g>
       </g>
      </g>
      <g class="com.sun.star.drawing.PolyPolygonShape">
       <g id="id129">
        <rect class="BoundingBox" stroke="none" fill="none" x="1000" y="1000" width="19002" height="18101"/>
        <path fill="rgb(0,0,0)" stroke="none" d="M 15296,19070 L 1048,19100 1045,19100 1042,19100 1039,19099 1036,19099 1033,19098 1030,19097 1027,19096 1024,19094 1021,19093 1019,19091 1016,19089 1014,19088 1012,19086 1010,19084 1008,19081 1006,19079 1005,19076 1004,19074 1002,19071 1002,19069 1001,19066 1000,19063 1000,19061 1000,19058 1000,1082 1000,1079 1000,1076 1001,1074 1002,1071 1002,1068 1004,1066 1005,1063 1006,1061 1008,1058 1010,1056 1012,1054 1014,1052 1016,1050 1019,1048 1021,1047 1024,1045 1027,1044 1030,1043 1033,1042 1036,1041 1039,1040 1042,1040 1045,1040 1048,1040 19952,1000 19955,1000 19958,1001 19961,1001 19964,1002 19967,1002 19970,1003 19973,1004 19976,1006 19979,1007 19981,1009 19984,1011 19986,1012 19988,1014 19990,1017 19992,1019 19994,1021 19995,1024 19996,1026 19998,1029 19998,1031 19999,1034 20000,1037 20000,1039 20000,1042 20000,14762 20000,14763 15296,19070 Z M 1097,19015 L 15263,18986 15249,14795 15249,14795 15249,14792 15249,14789 15249,14787 15250,14784 15251,14782 15252,14779 15254,14776 15255,14774 15257,14771 15259,14769 15261,14767 15263,14765 15265,14763 15267,14762 15270,14760 15273,14758 15276,14757 15279,14756 15282,14755 15284,14754 15287,14754 15291,14753 15294,14753 15297,14753 19903,14731 19903,1085 1097,1124 1097,19015 Z M 15360,18923 L 19840,14816 15346,14837 15360,18923 Z"/>
       </g>
      </g>
      <g class="com.sun.star.drawing.CustomShape">
       <g id="id130">
        <rect class="BoundingBox" stroke="none" fill="none" x="15284" y="14640" width="4739" height="4427"/>
        <path fill="rgb(153,153,153)" stroke="none" d="M 20021,14641 L 15394,19065 15285,14761 20021,14641 20021,14641 Z"/>
        <path fill="none" stroke="rgb(52,101,164)" d="M 20021,14641 L 15394,19065 15285,14761 20021,14641 20021,14641 Z"/>
       </g>
      </g>
      <g class="Graphic">
       <g id="id131">
        <rect class="BoundingBox" stroke="none" fill="none" x="16100" y="13385" width="3316" height="3316"/>
        <defs>
         <clipPath id="clip_path_2" clipPathUnits="userSpaceOnUse">
          <path d="M 16100,13385 L 19415,13385 19415,16700 16100,16700 16100,13385 Z"/>
         </clipPath>
        </defs>
        <g clip-path="url(#clip_path_2)">
         <path fill="rgb(0,0,0)" stroke="none" d="M 18862,14844 L 17649,14516 17649,13554 C 17649,13509 17631,13466 17600,13434 17568,13403 17525,13385 17480,13385 L 17316,13385 C 17272,13385 17229,13403 17197,13434 17165,13466 17148,13509 17148,13554 L 17148,15032 16887,14847 C 16850,14821 16804,14811 16759,14819 16714,14827 16675,14853 16649,14891 L 16568,15012 C 16529,15069 16529,15145 16569,15202 L 17148,16043 17148,16531 C 17148,16624 17223,16700 17316,16700 L 18530,16700 C 18530,16700 18530,16700 18530,16700 18623,16700 18698,16625 18698,16531 L 18698,16428 18953,15982 C 18968,15956 18975,15927 18975,15898 L 18976,15003 C 18976,14931 18930,14867 18862,14844 L 18862,14844 Z"/>
        </g>
       </g>
      </g>
     </g>
    </g>
   </g>
  </g>
 </g>
</svg>